<svg xmlns="http://www.w3.org/2000/svg" xml:space="preserve" style="fill-rule:evenodd;clip-rule:evenodd;stroke-linejoin:round;stroke-miterlimit:2" viewBox="0 0 2925 2331"><path d="M99.083 2331.96V2145.8c0-8.06 2.758-14.69 8.274-19.89 5.516-5.2 11.986-7.79 19.411-7.79h25.457c2.546 0 4.455.74 5.728 2.22 1.485 1.49 2.228 3.4 2.228 5.73v205.89c0 2.12-.743 3.92-2.228 5.41-1.273 1.69-3.182 2.54-5.728 2.54h-45.186c-2.122 0-3.978-.79-5.569-2.38-1.591-1.6-2.387-3.45-2.387-5.57Z" style="fill:#c50;fill-rule:nonzero" transform="translate(-1039.68 -22222.1) scale(10.493)"/><path d="M369.567 2117.8c2.333 0 4.295.79 5.887 2.38 1.591 1.59 2.386 3.45 2.386 5.57v35.64c0 2.34-.795 4.25-2.386 5.73-1.592 1.49-3.554 2.23-5.887 2.23h-73.826c4.667 0 8.857 1.7 12.569 5.09 3.713 3.39 5.569 7.21 5.569 11.45v145.75c0 2.33-.849 4.13-2.546 5.41-1.485 1.48-3.394 2.23-5.728 2.23h-44.232c-2.333 0-4.243-.75-5.728-2.23-1.697-1.28-2.545-3.08-2.545-5.41v-152.75c0-2.97-.955-5.3-2.864-7-1.91-1.69-4.137-2.54-6.683-2.54h-46.141c-2.122 0-4.031-.74-5.728-2.23-1.697-1.48-2.546-3.39-2.546-5.73v-16.23c0-4.03.796-7.74 2.387-11.13 1.591-3.4 3.712-6.32 6.364-8.75 2.652-2.44 5.622-4.3 8.91-5.57 3.288-1.28 6.63-1.91 10.024-1.91h152.744Z" style="fill:#07c;fill-rule:nonzero" transform="translate(-1039.68 -22222.1) scale(10.493)"/></svg>